<?xml version="1.0" encoding="UTF-8"?>
<svg id="Layer_1" data-name="Layer 1" xmlns="http://www.w3.org/2000/svg" viewBox="0 0 1024 1024">
  <defs>
    <style>
      .cls-1 {
        fill: #9fdcf0;
      }

      .cls-2 {
        fill: #120f23;
      }
    </style>
  </defs>
  <rect class="cls-2" width="1024" height="1024"/>
  <path class="cls-1" d="M821.34,895.56c-4.3,0-8.67-.93-12.82-2.89-57.44-27.21-111.13-56.2-160.6-86.69-29.22,24.56-61.77,44.49-97.1,59.43-47.31,20.01-97.54,30.15-149.31,30.15-61.14,0-118.61-23.81-161.84-67.04-43.23-43.23-67.04-100.71-67.04-161.84,0-72.7,23.8-128.92,72.76-171.88,17.46-15.32,36.77-27.83,57.01-38.67-34.67-72.98-41.39-131.09-41.39-165.1,0-89.65,72.94-162.58,162.58-162.58s162.58,72.94,162.58,162.58c0,51.27-19.5,91.69-59.62,123.54-32.68,25.95-75.56,43.08-117.02,59.65-7.88,3.15-15.67,6.26-23.33,9.39,10.83,17.26,22.91,34.43,36.15,51.32,54.75,69.85,127.71,135.11,217.99,195.14,52.6-57.56,84.72-134.13,84.72-218.06,0-16.57,13.43-30,30-30s30,13.43,30,30c0,51.77-10.15,102-30.15,149.31-15.67,37.04-36.82,71.02-63.03,101.32,43.92,26.4,91.38,51.69,142.32,75.82,14.97,7.09,21.36,24.98,14.27,39.96-5.13,10.83-15.9,17.16-27.13,17.16ZM331,508.69c-57.47,30.38-98.36,71.98-98.36,158,0,93.12,75.76,168.88,168.88,168.88,72.33,0,139.19-23.86,193.13-64.11-17.8-12.15-34.96-24.5-51.44-37.04-67-51-123.54-105.66-168.06-162.46-17.1-21.82-31.69-42.95-44.14-63.25ZM423.61,188.44c-56.56,0-102.58,46.02-102.58,102.58,0,42.6,12.63,90.69,36.01,139.72,10.09-4.19,20.21-8.24,30.25-12.25,39.17-15.65,76.17-30.43,101.97-50.92,25.54-20.28,36.94-43.89,36.94-76.56,0-56.57-46.02-102.58-102.58-102.58Z"/>
</svg>