<?xml version="1.0" encoding="UTF-8"?>
<svg xmlns="http://www.w3.org/2000/svg" viewBox="0 0 1024 1024">
  <defs>
    <style>
      .cls-1 {
        fill: #e8d5a0;
      }

      .cls-2 {
        fill: #1a3045;
      }
    </style>
  </defs>
  <g id="Layer_1" data-name="Layer 1">
    <rect class="cls-2" width="1024" height="1024"/>
  </g>
  <g id="Layer_2" data-name="Layer 2">
    <path class="cls-1" d="M724.29,706.15c-18,0-33.48-13.55-35.5-31.85-2.16-19.63,12-37.29,31.63-39.45,62.87-6.92,110.2-59.83,110.09-123.08-.06-33.02-12.97-64.04-36.36-87.34-23.34-23.25-54.31-36.05-87.25-36.05-.08,0-.15,0-.22,0h-63.45c-15.81,0-29.74-10.38-34.26-25.53-17.16-57.48-58.09-105.21-112.28-130.94-105.67-50.17-232.46-5.03-282.63,100.64-50.18,105.67-5.03,232.46,100.64,282.63,17.84,8.47,25.43,29.8,16.96,47.64-8.47,17.84-29.8,25.43-47.64,16.96-34.58-16.42-64.92-39.13-90.18-67.51-24.39-27.4-43.02-58.88-55.37-93.57-12.35-34.69-17.81-70.86-16.23-107.51,1.64-37.96,10.8-74.74,27.22-109.32,16.42-34.58,39.13-64.92,67.52-90.18,27.4-24.39,58.88-43.02,93.57-55.37,34.69-12.35,70.86-17.81,107.51-16.23,37.96,1.64,74.74,10.8,109.32,27.22,64.27,30.52,114.59,84.18,141.15,149.56h38.1c.11,0,.24,0,.35,0,51.93,0,100.82,20.2,137.66,56.91,36.92,36.79,57.3,85.75,57.39,137.87.08,48.19-17.56,94.5-49.69,130.42-32.12,35.92-76.2,58.6-124.09,63.87-1.33.15-2.65.22-3.95.22Z"/>
    <path class="cls-1" d="M476.4,884.18c-6.26,0-12.6-1.64-18.36-5.1-16.93-10.16-22.42-32.12-12.26-49.06l73.75-122.92h-78.51c-12.88,0-24.77-6.93-31.12-18.14-6.35-11.21-6.17-24.97.45-36.01l106.24-177.07c10.16-16.93,32.12-22.43,49.06-12.26,16.93,10.16,22.42,32.12,12.26,49.06l-73.75,122.92h78.5c12.88,0,24.77,6.93,31.11,18.14,6.35,11.21,6.17,24.97-.45,36.01l-106.24,177.07c-6.7,11.17-18.55,17.36-30.69,17.36Z"/>
  </g>
</svg>