<?xml version="1.0" encoding="UTF-8"?>
<svg xmlns="http://www.w3.org/2000/svg" viewBox="0 0 1024 1024">
  <defs>
    <style>
      .cls-1 {
        fill: #e8d5a0;
      }

      .cls-2 {
        fill: #1a3045;
      }
    </style>
  </defs>
  <g id="Layer_1" data-name="Layer 1">
    <rect class="cls-2" width="1024" height="1024"/>
  </g>
  <g id="Layer_2" data-name="Layer 2">
    <path class="cls-1" d="M762.37,738.81c-20.13,0-37.46-15.16-39.71-35.63-2.42-21.96,13.43-41.72,35.38-44.13,75.26-8.28,131.91-71.62,131.77-147.33-.07-39.52-15.52-76.65-43.52-104.54-27.93-27.83-65.01-43.15-104.43-43.15h-75.1c-17.68,0-33.27-11.61-38.33-28.56-20.42-68.39-69.1-125.16-133.57-155.78-125.71-59.69-276.54-5.98-336.23,119.72-28.92,60.9-32.39,129.41-9.77,192.91,22.61,63.51,68.6,114.41,129.5,143.32,19.96,9.48,28.45,33.33,18.98,53.29-9.48,19.96-33.33,28.45-53.29,18.98-40.52-19.24-76.07-45.86-105.67-79.11-28.58-32.1-50.4-68.99-64.88-109.64s-20.87-83.03-19.02-125.97c1.92-44.48,12.65-87.57,31.89-128.09s45.86-76.07,79.11-105.67c32.1-28.58,68.99-50.4,109.64-64.88s83.03-20.88,125.97-19.02c44.48,1.92,87.57,12.65,128.09,31.89,75.76,35.97,134.96,99.38,165.94,176.6h46.41c.13,0,.27,0,.41,0,60.67,0,117.79,23.6,160.83,66.49,43.13,42.98,66.94,100.18,67.05,161.07.1,56.3-20.52,110.41-58.05,152.37-37.53,41.96-89.02,68.46-144.98,74.62-1.49.16-2.96.24-4.42.24Z"/>
    <path class="cls-1" d="M470.01,948.78c-7,0-14.1-1.84-20.54-5.71-18.94-11.37-25.09-35.94-13.72-54.88l88.96-148.26h-96.42c-14.41,0-27.71-7.75-34.81-20.29s-6.91-27.93.51-40.29l125.3-208.84c11.37-18.94,35.94-25.09,54.88-13.72,18.94,11.37,25.09,35.94,13.72,54.88l-88.96,148.26h96.42c14.41,0,27.71,7.75,34.81,20.29,7.1,12.54,6.91,27.93-.51,40.29l-125.3,208.84c-7.5,12.5-20.75,19.43-34.34,19.43Z"/>
  </g>
</svg>