<?xml version="1.0" encoding="UTF-8"?>
<svg id="Layer_1" data-name="Layer 1" xmlns="http://www.w3.org/2000/svg" viewBox="0 0 1024 1024">
  <defs>
    <style>
      .cls-1 {
        fill: #fff;
      }
    </style>
  </defs>
  <rect width="1024" height="1024"/>
  <path class="cls-1" d="M338.01,883.41c-18.64,0-37.28-4.99-53.91-14.98l-104.38-62.63c-31.25-18.77-50.7-53.06-50.78-89.5v-112.83c.08-36.51,19.53-70.8,50.76-89.56,0,0,0,0,0,0l140.25-84.22c11.1-6.67,24.98-6.67,36.09,0l174,104.4c10.56,6.34,17.02,17.75,17.02,30.06v191.4c0,12.32-6.47,23.74-17.03,30.07l-138.16,82.83c-16.61,9.98-35.23,14.97-53.86,14.97ZM215.81,574.01h0c-10.31,6.19-16.73,17.51-16.75,29.53v112.68c.03,11.95,6.45,23.26,16.75,29.46l104.38,62.63c10.99,6.6,24.62,6.6,35.59.01l121.15-72.63v-151.69l-138.93-83.36-122.2,73.38Z"/>
  <path class="cls-1" d="M337.96,703.61c-6.15,0-12.38-1.62-18.03-5.02l-164.95-99.18c-16.59-9.98-21.96-31.52-11.98-48.11,9.98-16.59,31.52-21.96,48.11-11.98l164.95,99.18c16.59,9.98,21.96,31.52,11.98,48.11-6.58,10.94-18.18,17-30.08,17Z"/>
  <path class="cls-1" d="M338.03,703.61c-11.91,0-23.52-6.07-30.1-17.03-9.96-16.6-4.58-38.14,12.03-48.1l174-104.4c16.6-9.96,38.14-4.58,48.1,12.03,9.96,16.6,4.58,38.14-12.03,48.1l-174,104.4c-5.65,3.39-11.87,5-18.01,5Z"/>
  <path class="cls-1" d="M338,883.52c-19.36,0-35.06-15.7-35.06-35.06v-179.92c0-19.36,15.7-35.06,35.06-35.06s35.06,15.7,35.06,35.06v179.92c0,19.36-15.7,35.06-35.06,35.06Z"/>
  <path class="cls-1" d="M686.01,883.41c-18.64,0-37.28-4.99-53.91-14.98l-138.13-82.81c-10.57-6.33-17.03-17.75-17.03-30.07v-191.4c0-12.32,6.46-23.73,17.02-30.06l174-104.4c11.11-6.66,24.98-6.66,36.09,0l140.25,84.22c31.24,18.77,50.69,53.05,50.77,89.49v112.83c-.08,36.51-19.53,70.8-50.76,89.56l-104.42,62.65c-16.61,9.98-35.25,14.97-53.88,14.97ZM547.06,735.69l121.13,72.61c11,6.61,24.63,6.61,35.61.02l104.42-62.65c10.29-6.18,16.71-17.5,16.73-29.52v-112.68c-.03-11.95-6.45-23.26-16.75-29.45l-122.2-73.38-138.94,83.36v151.69Z"/>
  <path class="cls-1" d="M685.97,703.61c-6.14,0-12.36-1.61-18.01-5l-174-104.4c-16.6-9.96-21.99-31.5-12.03-48.1,9.96-16.6,31.5-21.99,48.1-12.03l174,104.4c16.6,9.96,21.99,31.5,12.03,48.1-6.57,10.96-18.19,17.03-30.1,17.03Z"/>
  <path class="cls-1" d="M686.04,703.61c-11.9,0-23.5-6.06-30.08-17-9.98-16.59-4.61-38.14,11.98-48.11l164.95-99.18c16.59-9.98,38.13-4.61,48.11,11.98,9.98,16.59,4.61,38.14-11.98,48.11l-164.95,99.18c-5.65,3.4-11.88,5.02-18.03,5.02Z"/>
  <path class="cls-1" d="M686,883.52c-19.36,0-35.06-15.7-35.06-35.06v-179.92c0-19.36,15.7-35.06,35.06-35.06s35.06,15.7,35.06,35.06v179.92c0,19.36-15.7,35.06-35.06,35.06Z"/>
  <path class="cls-1" d="M512,599.2c-6.24,0-12.49-1.67-18.04-5l-174-104.4c-10.56-6.34-17.02-17.75-17.02-30.06v-152.08c.08-36.51,19.53-70.8,50.76-89.56,0,0,.01,0,.02-.01l104.4-62.64c33.23-19.96,74.54-19.96,107.78.01l104.38,62.63c31.25,18.77,50.7,53.06,50.78,89.5v152.16c0,12.32-6.46,23.73-17.02,30.06l-174,104.4c-5.55,3.33-11.8,5-18.04,5ZM373.06,439.89l138.94,83.36,138.94-83.37v-132.23c-.03-11.95-6.45-23.26-16.75-29.46l-104.38-62.63c-10.99-6.6-24.62-6.6-35.6-.01l-104.42,62.65c-10.3,6.19-16.71,17.5-16.73,29.52v132.15ZM373.06,459.74h0,0Z"/>
  <path class="cls-1" d="M511.97,407.81c-6.15,0-12.38-1.62-18.03-5.02l-164.95-99.18c-16.59-9.98-21.96-31.52-11.98-48.11,9.98-16.59,31.52-21.96,48.11-11.98l164.95,99.18c16.59,9.98,21.96,31.52,11.98,48.11-6.58,10.94-18.18,17-30.08,17Z"/>
  <path class="cls-1" d="M512.03,407.81c-11.9,0-23.5-6.06-30.08-17-9.98-16.59-4.61-38.14,11.98-48.11l164.95-99.18c16.59-9.98,38.14-4.61,48.11,11.98,9.98,16.59,4.61,38.14-11.98,48.11l-164.95,99.18c-5.65,3.4-11.88,5.02-18.03,5.02Z"/>
  <path class="cls-1" d="M512,599.2c-19.36,0-35.06-15.7-35.06-35.06v-191.4c0-19.36,15.7-35.06,35.06-35.06s35.06,15.7,35.06,35.06v191.4c0,19.36-15.7,35.06-35.06,35.06Z"/>
</svg>