<?xml version="1.0" encoding="UTF-8"?>
<svg id="Layer_1" data-name="Layer 1" xmlns="http://www.w3.org/2000/svg" xmlns:xlink="http://www.w3.org/1999/xlink" viewBox="0 0 1920 1080">
  <defs>
    <style>
      .cls-1 {
        fill: #fff;
      }

      .cls-2 {
        fill: url(#linear-gradient);
      }
    </style>
    <linearGradient id="linear-gradient" x1="1588.49" y1="1289" x2="327.56" y2="-213.71" gradientUnits="userSpaceOnUse">
      <stop offset="0" stop-color="#155dfc"/>
      <stop offset="1" stop-color="#1447e6"/>
    </linearGradient>
  </defs>
  <rect class="cls-2" width="1920" height="1080"/>
  <g>
    <path class="cls-1" d="M202.89,597.24v-201.86h91.7c21.92,0,41.24,4.18,57.96,12.54s29.8,20.09,39.22,35.18c9.42,15.09,14.13,32.83,14.13,53.2s-4.71,38.11-14.13,53.2c-9.42,15.1-22.49,26.82-39.22,35.18-16.73,8.36-36.05,12.54-57.96,12.54h-91.7ZM249.89,559.17h42.39c13.45,0,25.13-2.55,35.04-7.64,9.9-5.09,17.59-12.4,23.07-21.92s8.22-20.62,8.22-33.31-2.74-24.03-8.22-33.45c-5.48-9.42-13.17-16.68-23.07-21.77-9.9-5.09-21.58-7.64-35.04-7.64h-42.39v125.73Z"/>
    <path class="cls-1" d="M411.67,597.24l89.68-201.86h46.14l90.55,201.86h-49.02l-74.11-178.21h18.74l-74.11,178.21h-47.87ZM456.94,553.98l11.82-35.47h104.39l12.11,35.47h-128.33Z"/>
    <path class="cls-1" d="M708.69,597.24l-87.38-201.86h50.75l76.13,178.79h-29.7l77.28-178.79h46.43l-87.38,201.86h-46.14Z"/>
    <path class="cls-1" d="M818.27,626.08l95.16-271.64h39.8l-95.16,271.64h-39.79Z"/>
    <path class="cls-1" d="M964.76,597.24v-201.86h91.7c21.92,0,41.24,4.18,57.96,12.54s29.8,20.09,39.22,35.18c9.42,15.09,14.13,32.83,14.13,53.2s-4.71,38.11-14.13,53.2c-9.42,15.1-22.49,26.82-39.22,35.18-16.73,8.36-36.05,12.54-57.96,12.54h-91.7ZM1011.76,559.17h42.39c13.45,0,25.13-2.55,35.04-7.64,9.9-5.09,17.59-12.4,23.07-21.92,5.48-9.52,8.22-20.62,8.22-33.31s-2.74-24.03-8.22-33.45c-5.48-9.42-13.17-16.68-23.07-21.77-9.9-5.09-21.58-7.64-35.04-7.64h-42.39v125.73Z"/>
    <path class="cls-1" d="M1202.95,597.24v-201.86h152.55v37.49h-106.12v126.88h109.87v37.49h-156.3ZM1245.92,513.04v-36.62h97.18v36.62h-97.18Z"/>
    <path class="cls-1" d="M1454.12,597.24l-87.38-201.86h50.75l76.13,178.79h-29.7l77.28-178.79h46.43l-87.38,201.86h-46.14Z"/>
    <path class="cls-1" d="M1670.97,600.7c-16.15,0-31.68-2.16-46.57-6.49-14.9-4.33-26.87-9.95-35.9-16.87l15.86-35.18c8.46,6.16,18.65,11.2,30.57,15.14,11.92,3.94,23.93,5.91,36.05,5.91,9.23,0,16.68-.96,22.35-2.88,5.67-1.92,9.85-4.47,12.54-7.64,2.69-3.17,4.04-6.87,4.04-11.1,0-5.38-2.12-9.66-6.34-12.83-4.23-3.17-9.85-5.77-16.87-7.79-7.02-2.02-14.66-3.94-22.93-5.77-8.27-1.82-16.58-4.04-24.94-6.63-8.36-2.6-16.05-6.06-23.07-10.38-7.02-4.33-12.59-9.99-16.73-17.01-4.14-7.02-6.2-15.81-6.2-26.39,0-11.54,3.07-22.06,9.23-31.58,6.15-9.52,15.52-17.11,28.12-22.78,12.59-5.67,28.4-8.51,47.44-8.51,12.69,0,25.23,1.54,37.63,4.61,12.4,3.08,23.21,7.5,32.44,13.27l-14.71,35.18c-9.04-5.19-18.36-9.08-27.97-11.68-9.62-2.6-18.84-3.89-27.68-3.89s-16.63,1.01-22.2,3.03c-5.58,2.02-9.66,4.76-12.26,8.22-2.6,3.46-3.89,7.31-3.89,11.54,0,5.38,2.11,9.71,6.34,12.98,4.23,3.27,9.8,5.82,16.73,7.64,6.92,1.83,14.61,3.65,23.07,5.48,8.46,1.83,16.82,4.09,25.09,6.78,8.26,2.69,15.86,6.11,22.78,10.24,6.92,4.14,12.54,9.71,16.87,16.73,4.33,7.02,6.49,15.72,6.49,26.1,0,11.35-3.13,21.73-9.37,31.14-6.25,9.42-15.72,17.01-28.4,22.78s-28.55,8.65-47.58,8.65Z"/>
  </g>
</svg>