<?xml version="1.0" encoding="UTF-8"?>
<svg id="Layer_1" data-name="Layer 1" xmlns="http://www.w3.org/2000/svg" viewBox="0 0 1024 1024">
  <defs>
    <style>
      .cls-1 {
        fill: none;
        stroke: #c3ae99;
        stroke-linecap: round;
        stroke-linejoin: round;
        stroke-width: 80px;
      }

      .cls-2 {
        fill: #3d2817;
      }
    </style>
  </defs>
  <rect class="cls-2" width="1024" height="1024"/>
  <path class="cls-1" d="M782.71,705.45V241.69c0-42.69-34.61-77.29-77.29-77.29H203"/>
  <path class="cls-1" d="M357.58,860.04h463.77c42.69,0,77.29-34.61,77.29-77.29v-38.65c0-21.34-17.3-38.65-38.65-38.65h-386.47c-21.34,0-38.65,17.3-38.65,38.65v38.65c0,42.69-34.61,77.29-77.29,77.29s-77.29-34.61-77.29-77.29V241.69c0-42.69-34.61-77.29-77.29-77.29s-77.29,34.61-77.29,77.29v77.29c0,21.34,17.3,38.65,38.65,38.65h115.94"/>
</svg>