<?xml version="1.0" encoding="UTF-8"?>
<svg id="Layer_1" data-name="Layer 1" xmlns="http://www.w3.org/2000/svg" viewBox="0 0 1024 1024">
  <defs>
    <style>
      .cls-1 {
        fill: #3d2817;
      }

      .cls-2 {
        fill: #e8e4cb;
      }
    </style>
  </defs>
  <rect class="cls-2" width="1024" height="1024"/>
  <path class="cls-1" d="M511.81,880.66c-28.28,0-55.29-10.08-76.82-28.83-3.27-2.85-6.42-5.92-9.38-9.13l-211.84-205.07c-.16-.15-.31-.3-.46-.46-61.74-61.74-127.6-136.35-127.6-240.74h0c0-67.44,26.26-130.83,73.95-178.52,47.68-47.68,111.08-73.94,178.51-73.94h0c64.8,0,127.06,25.04,173.75,69.31,43.22-41.49,99.19-65.99,159.64-69.51,67.21-3.91,131.93,18.58,182.23,63.35,54.02,48.07,84.81,117.11,84.49,189.42-.02,47.81-13.85,93.19-42.28,138.74-24.18,38.74-55.3,71.87-85.32,101.89-.16.16-.31.31-.47.46l-211.04,204.17c-20.46,22.78-48.48,36.45-79.1,38.57-2.76.19-5.52.29-8.26.29ZM269.65,580.38l212.53,205.74c.69.67,1.36,1.37,2.01,2.09,1.04,1.16,2.16,2.27,3.32,3.28,7.51,6.54,17.11,9.76,27.04,9.08,9.93-.69,18.99-5.2,25.53-12.7.75-.86,1.54-1.69,2.36-2.48l211.91-205c52.63-52.65,103.94-110.22,103.94-183.94v-.19c.24-49.38-20.79-96.53-57.67-129.36-34.33-30.56-78.52-45.9-124.4-43.24-45.88,2.67-87.98,23.05-118.54,57.39-.22.24-.44.48-.66.72-.92.98-1.89,1.96-2.89,2.89-24.86,23.24-63.94,21.94-87.15-2.88-.18-.19-.36-.39-.54-.59-32.66-36.34-79.41-57.19-128.27-57.19-95.09,0-172.45,77.37-172.46,172.46,0,73.72,51.31,131.3,103.94,183.95Z"/>
</svg>